<svg xmlns="http://www.w3.org/2000/svg" viewBox="0 0 96 96" role="img" aria-labelledby="title desc">
  <title id="title">ETHVP mark</title>
  <desc id="desc">An Ethereum diamond inside an open verified vault path.</desc>
  <defs>
    <linearGradient id="shell" x1="15" y1="10" x2="82" y2="88" gradientUnits="userSpaceOnUse">
      <stop stop-color="#B9C3FF"/>
      <stop offset=".55" stop-color="#8293F2"/>
      <stop offset="1" stop-color="#5B6FD4"/>
    </linearGradient>
    <linearGradient id="path" x1="28" y1="54" x2="70" y2="78" gradientUnits="userSpaceOnUse">
      <stop stop-color="#69DCAA"/>
      <stop offset="1" stop-color="#15915E"/>
    </linearGradient>
  </defs>
  <path d="M48 6 82 24v34c0 17-11 27-34 34C25 85 14 75 14 58V24L48 6Z" fill="#101528" stroke="url(#shell)" stroke-width="2.5"/>
  <path d="M48 17 29 48l19-10 19 10-19-31Z" fill="#BFC8FF"/>
  <path d="m48 17-19 31 19-10V17Z" fill="#8FA0F4"/>
  <path d="M29 52 48 63 48 77 29 52Z" fill="#69DCAA"/>
  <path d="M67 52 48 63 48 77 67 52Z" fill="url(#path)"/>
  <path d="m29 52 19 11 19-11" fill="none" stroke="#AAB6FF" stroke-width="1" stroke-linecap="round" stroke-linejoin="round" opacity=".65"/>
  <circle cx="78" cy="24" r="6" fill="#0F1922" stroke="#69DCAA" stroke-width="2"/>
  <path d="m75.5 24 1.7 1.8 3.4-4" fill="none" stroke="#69DCAA" stroke-width="1.8" stroke-linecap="round" stroke-linejoin="round"/>
</svg>
